<?xml version="1.0"?><svg version="1.1" id="Layer_1" xmlns="http://www.w3.org/2000/svg" xmlns:xlink="http://www.w3.org/1999/xlink" x="0px" y="0px" viewBox="0 0 400 400" style="enable-background:new 0 0 400 400;" xml:space="preserve" xmlns:c2pa="http://c2pa.org/manifest"><metadata><c2pa:manifest>AAAWgmp1bWIAAAAeanVtZGMycGEAEQAQgAAAqgA4m3EDYzJwYQAAABZcanVtYgAAAEdqdW1kYzJtYQARABCAAACqADibcQN1cm46YzJwYTplNDRiOGY0ZS0wYWI0LTRmMTQtOGViNi1mN2FhOGM3M2ZiNmYAAAADl2p1bWIAAAApanVtZGMyYXMAEQAQgAAAqgA4m3EDYzJwYS5hc3NlcnRpb25zAAAAALxqdW1iAAAARGp1bWRjYm9yABEAEIAAAKoAOJtxE2MycGEuaW5ncmVkaWVudC52MwAAAAAYYzJzaPC+lW/WPqLxuZwS0lNLQOAAAABwY2JvcqNpZGM6Zm9ybWF0bWltYWdlL3N2Zyt4bWxqaW5zdGFuY2VJRHgseG1wOmlpZDowYmM2YmMwMi05YWNkLTQ2MjktYTM1Ni1mYzc2YThmZDk4ZmVscmVsYXRpb25zaGlwaHBhcmVudE9mAAAB4mp1bWIAAABBanVtZGNib3IAEQAQgAAAqgA4m3ETYzJwYS5hY3Rpb25zLnYyAAAAABhjMnNoFNC3uS4U90LjjmsGNk9/4gAAAZljYm9yomdhY3Rpb25zgqJmYWN0aW9ua2MycGEub3BlbmVkanBhcmFtZXRlcnOha2luZ3JlZGllbnRzgaJjdXJseC1zZWxmI2p1bWJmPWMycGEuYXNzZXJ0aW9ucy9jMnBhLmluZ3JlZGllbnQudjNkaGFzaFggN6QiaZ52no3mlv3O8kDaif8XiHbzwxLfo5BUIjtV5z2kZmFjdGlvbngdY29tLmFudGhyb3BpYy5jbGF1ZGUucHJvdmlkZWRqcGFyYW1ldGVyc6F4H2NvbS5hbnRocm9waWMub3JpZ2luLWNvbmZpZGVuY2VndW5rbm93bmtkZXNjcmlwdGlvbnhmQ2xhdWRlIHByb3ZpZGVkIHRoaXMgZmlsZSBhdCB0aGUgcmVxdWVzdCBvZiBhIHVzZXIgYW5kIG1heSBoYXZlIGNyZWF0ZWQgb3IgbW9kaWZpZWQgdGhlIGZpbGUgY29udGVudHMubXNvZnR3YXJlQWdlbnShZG5hbWVmQ2xhdWRlcmFsbEFjdGlvbnNJbmNsdWRlZPUAAADIanVtYgAAAEBqdW1kY2JvcgARABCAAACqADibcRNjMnBhLmhhc2guZGF0YQAAAAAYYzJzaNx0tLUuUSvDdBfWOpCp4CMAAACAY2JvcqVjYWxnZnNoYTI1NmNwYWRMAAAAAAAAAAAAAAAAZGhhc2hYIMXcLguZwDVgUaaBIb4ATN7RAco81JuLlHlyClA2f7IFZG5hbWVuanVtYmYgbWFuaWZlc3RqZXhjbHVzaW9uc4GiZXN0YXJ0GQEoZmxlbmd0aBkeBAAAAj5qdW1iAAAAJ2p1bWRjMmNsABEAEIAAAKoAOJtxA2MycGEuY2xhaW0udjIAAAACD2Nib3KlY2FsZ2ZzaGEyNTZpc2lnbmF0dXJleE1zZWxmI2p1bWJmPS9jMnBhL3VybjpjMnBhOmU0NGI4ZjRlLTBhYjQtNGYxNC04ZWI2LWY3YWE4YzczZmI2Zi9jMnBhLnNpZ25hdHVyZWppbnN0YW5jZUlEeCx4bXA6aWlkOmMyNjMxYmFmLTdlMzEtNDJkOC1iOWMzLTAzNWRjOWRhZWJiN3JjcmVhdGVkX2Fzc2VydGlvbnODomN1cmx4LXNlbGYjanVtYmY9YzJwYS5hc3NlcnRpb25zL2MycGEuaW5ncmVkaWVudC52M2RoYXNoWCA3pCJpnnaejeaW/c7yQNqJ/xeIdvPDEt+jkFQiO1XnPaJjdXJseCpzZWxmI2p1bWJmPWMycGEuYXNzZXJ0aW9ucy9jMnBhLmFjdGlvbnMudjJkaGFzaFggoTyK8Aum5NF2/yeIyQ37p4WsA+97ltqNXF0wh+9X5pSiY3VybHgpc2VsZiNqdW1iZj1jMnBhLmFzc2VydGlvbnMvYzJwYS5oYXNoLmRhdGFkaGFzaFggL6PkSk6ApZPOagprXXiBw9exvZwTMvrzfbut3WBY41B0Y2xhaW1fZ2VuZXJhdG9yX2luZm+jZG5hbWVvQW50aHJvcGljIEZpbGVzZ3ZlcnNpb25lMS4wLjBrc3BlY1ZlcnNpb25lMi40LjAAABA4anVtYgAAAChqdW1kYzJjcwARABCAAACqADibcQNjMnBhLnNpZ25hdHVyZQAAABAIY2JvctKEWQISogEmGCFZAgowggIGMIIBjaADAgECAhRA5aAK7sI50L64g/oGQgU9Z1UTADAKBggqhkjOPQQDAzBJMRcwFQYDVQQKEw5BbnRocm9waWMsIFBCQzEuMCwGA1UEAxMlQW50aHJvcGljIENvbnRlbnQgQ3JlZGVudGlhbHMgUm9vdCBDQTAeFw0yNjA4MDcxODQzNTZaFw0yODA4MDYxOTQzNTZaMEQxFzAVBgNVBAoTDkFudGhyb3BpYywgUEJDMSkwJwYDVQQDEyBBbnRocm9waWMgQ2xhdWRlIENvbnRlbnQgU2lnbmluZzBZMBMGByqGSM49AgEGCCqGSM49AwEHA0IABJh6CmvLUBgFFNU0vUKlOVtE6djd17L5SuwX0LemFisBM3dkd/3cyjxFA3Qo5S46fX0/ihY0VZ7mfb9KF703t5OjWDBWMA4GA1UdDwEB/wQEAwIHgDAVBgNVHSUEDjAMBgorBgEEAYPoXgIBMAwGA1UdEwEB/wQCMAAwHwYDVR0jBBgwFoAUzlHiBIFOZFsj+OPEz5o+nMHXXMIwCgYIKoZIzj0EAwMDZwAwZAIwMXMdFJ4BetLLVY7ORuE9noqbbAZOZn/aArXyTwFAZfKrPzxF2vPoJNf1+UCdg1XGAjBwX1zd9WGqYkqmL5SFqw1QySjr1zJfpJM9+1rdDwSPLMOPOjKuiXjoU/pUUeG9RwmhY3BhZFkNngAAAAAAAAAAAAAAAAAAAAAAAAAAAAAAAAAAAAAAAAAAAAAAAAAAAAAAAAAAAAAAAAAAAAAAAAAAAAAAAAAAAAAAAAAAAAAAAAAAAAAAAAAAAAAAAAAAAAAAAAAAAAAAAAAAAAAAAAAAAAAAAAAAAAAAAAAAAAAAAAAAAAAAAAAAAAAAAAAAAAAAAAAAAAAAAAAAAAAAAAAAAAAAAAAAAAAAAAAAAAAAAAAAAAAAAAAAAAAAAAAAAAAAAAAAAAAAAAAAAAAAAAAAAAAAAAAAAAAAAAAAAAAAAAAAAAAAAAAAAAAAAAAAAAAAAAAAAAAAAAAAAAAAAAAAAAAAAAAAAAAAAAAAAAAAAAAAAAAAAAAAAAAAAAAAAAAAAAAAAAAAAAAAAAAAAAAAAAAAAAAAAAAAAAAAAAAAAAAAAAAAAAAAAAAAAAAAAAAAAAAAAAAAAAAAAAAAAAAAAAAAAAAAAAAAAAAAAAAAAAAAAAAAAAAAAAAAAAAAAAAAAAAAAAAAAAAAAAAAAAAAAAAAAAAAAAAAAAAAAAAAAAAAAAAAAAAAAAAAAAAAAAAAAAAAAAAAAAAAAAAAAAAAAAAAAAAAAAAAAAAAAAAAAAAAAAAAAAAAAAAAAAAAAAAAAAAAAAAAAAAAAAAAAAAAAAAAAAAAAAAAAAAAAAAAAAAAAAAAAAAAAAAAAAAAAAAAAAAAAAAAAAAAAAAAAAAAAAAAAAAAAAAAAAAAAAAAAAAAAAAAAAAAAAAAAAAAAAAAAAAAAAAAAAAAAAAAAAAAAAAAAAAAAAAAAAAAAAAAAAAAAAAAAAAAAAAAAAAAAAAAAAAAAAAAAAAAAAAAAAAAAAAAAAAAAAAAAAAAAAAAAAAAAAAAAAAAAAAAAAAAAAAAAAAAAAAAAAAAAAAAAAAAAAAAAAAAAAAAAAAAAAAAAAAAAAAAAAAAAAAAAAAAAAAAAAAAAAAAAAAAAAAAAAAAAAAAAAAAAAAAAAAAAAAAAAAAAAAAAAAAAAAAAAAAAAAAAAAAAAAAAAAAAAAAAAAAAAAAAAAAAAAAAAAAAAAAAAAAAAAAAAAAAAAAAAAAAAAAAAAAAAAAAAAAAAAAAAAAAAAAAAAAAAAAAAAAAAAAAAAAAAAAAAAAAAAAAAAAAAAAAAAAAAAAAAAAAAAAAAAAAAAAAAAAAAAAAAAAAAAAAAAAAAAAAAAAAAAAAAAAAAAAAAAAAAAAAAAAAAAAAAAAAAAAAAAAAAAAAAAAAAAAAAAAAAAAAAAAAAAAAAAAAAAAAAAAAAAAAAAAAAAAAAAAAAAAAAAAAAAAAAAAAAAAAAAAAAAAAAAAAAAAAAAAAAAAAAAAAAAAAAAAAAAAAAAAAAAAAAAAAAAAAAAAAAAAAAAAAAAAAAAAAAAAAAAAAAAAAAAAAAAAAAAAAAAAAAAAAAAAAAAAAAAAAAAAAAAAAAAAAAAAAAAAAAAAAAAAAAAAAAAAAAAAAAAAAAAAAAAAAAAAAAAAAAAAAAAAAAAAAAAAAAAAAAAAAAAAAAAAAAAAAAAAAAAAAAAAAAAAAAAAAAAAAAAAAAAAAAAAAAAAAAAAAAAAAAAAAAAAAAAAAAAAAAAAAAAAAAAAAAAAAAAAAAAAAAAAAAAAAAAAAAAAAAAAAAAAAAAAAAAAAAAAAAAAAAAAAAAAAAAAAAAAAAAAAAAAAAAAAAAAAAAAAAAAAAAAAAAAAAAAAAAAAAAAAAAAAAAAAAAAAAAAAAAAAAAAAAAAAAAAAAAAAAAAAAAAAAAAAAAAAAAAAAAAAAAAAAAAAAAAAAAAAAAAAAAAAAAAAAAAAAAAAAAAAAAAAAAAAAAAAAAAAAAAAAAAAAAAAAAAAAAAAAAAAAAAAAAAAAAAAAAAAAAAAAAAAAAAAAAAAAAAAAAAAAAAAAAAAAAAAAAAAAAAAAAAAAAAAAAAAAAAAAAAAAAAAAAAAAAAAAAAAAAAAAAAAAAAAAAAAAAAAAAAAAAAAAAAAAAAAAAAAAAAAAAAAAAAAAAAAAAAAAAAAAAAAAAAAAAAAAAAAAAAAAAAAAAAAAAAAAAAAAAAAAAAAAAAAAAAAAAAAAAAAAAAAAAAAAAAAAAAAAAAAAAAAAAAAAAAAAAAAAAAAAAAAAAAAAAAAAAAAAAAAAAAAAAAAAAAAAAAAAAAAAAAAAAAAAAAAAAAAAAAAAAAAAAAAAAAAAAAAAAAAAAAAAAAAAAAAAAAAAAAAAAAAAAAAAAAAAAAAAAAAAAAAAAAAAAAAAAAAAAAAAAAAAAAAAAAAAAAAAAAAAAAAAAAAAAAAAAAAAAAAAAAAAAAAAAAAAAAAAAAAAAAAAAAAAAAAAAAAAAAAAAAAAAAAAAAAAAAAAAAAAAAAAAAAAAAAAAAAAAAAAAAAAAAAAAAAAAAAAAAAAAAAAAAAAAAAAAAAAAAAAAAAAAAAAAAAAAAAAAAAAAAAAAAAAAAAAAAAAAAAAAAAAAAAAAAAAAAAAAAAAAAAAAAAAAAAAAAAAAAAAAAAAAAAAAAAAAAAAAAAAAAAAAAAAAAAAAAAAAAAAAAAAAAAAAAAAAAAAAAAAAAAAAAAAAAAAAAAAAAAAAAAAAAAAAAAAAAAAAAAAAAAAAAAAAAAAAAAAAAAAAAAAAAAAAAAAAAAAAAAAAAAAAAAAAAAAAAAAAAAAAAAAAAAAAAAAAAAAAAAAAAAAAAAAAAAAAAAAAAAAAAAAAAAAAAAAAAAAAAAAAAAAAAAAAAAAAAAAAAAAAAAAAAAAAAAAAAAAAAAAAAAAAAAAAAAAAAAAAAAAAAAAAAAAAAAAAAAAAAAAAAAAAAAAAAAAAAAAAAAAAAAAAAAAAAAAAAAAAAAAAAAAAAAAAAAAAAAAAAAAAAAAAAAAAAAAAAAAAAAAAAAAAAAAAAAAAAAAAAAAAAAAAAAAAAAAAAAAAAAAAAAAAAAAAAAAAAAAAAAAAAAAAAAAAAAAAAAAAAAAAAAAAAAAAAAAAAAAAAAAAAAAAAAAAAAAAAAAAAAAAAAAAAAAAAAAAAAAAAAAAAAAAAAAAAAAAAAAAAAAAAAAAAAAAAAAAAAAAAAAAAAAAAAAAAAAAAAAAAAAAAAAAAAAAAAAAAAAAAAAAAAAAAAAAAAAAAAAAAAAAAAAAAAAAAAAAAAAAAAAAAAAAAAAAAAAAAAAAAAAAAAAAAAAAAAAAAAAAAAAAAAAAAAAAAAAAAAAAAAAAAAAAAAAAAAAAAAAAAAAAAAAAAAAAAAAAAAAAAAAAAAAAAAAAAAAAAAAAAAAAAAAAAAAAAAAAAAAAAAAAAAAAAAAAAAAAAAAAAAAAAAAAAAAAAAAAAAAAAAAAAAAAAAAAAAAAAAAAAAAAAAAAAAAAAAAAAAAAAAAAAAAAAAAAAAAAAAAAAAAAAAAAAAAAAAAAAAAAAAAAAAAAAAAAAAAAAAAAAAAAAAAAAAAAAAAAAAAAAAAAAAAAAAAAAAAAAAAAAAAAAAAAAAAAAAAAAAAAAAAAAAAAAAAAAAAAAAAAAAAAAAAAAAAAAAAAAAAAAAAAAAAAAAAAAAAAAAAAAAAAAAAAAAAAAAAAAAAAAAAAAAAAAAAAAAAAAAAAAAAAAAAAAAAAAAAAAAAAAAAAAAAAAAAAAAAAAAAAAAAAAAAAAAAAAAAAAAAAAAAAAAAAAAAAAAAAAAAAAAAAAAAAAAAAAAAAAAAAAAAAAAAAAAAAAAAAAAAAAAAAAAAAAAAAAAAAAAAAAAAAAAAAAAAAAAAAAAAAAAAAAAAAAAAAAAAAAAAAAAAAAAAAAAAAAAAAAAAAAAAAAAAAAAAAAAAAAAAAAAAAAAAAAAAAAAAAAAAAAAAAAAAAAAAAAAAAAAAAAAAAAAAAAAAAAAAAAAAAAAAAAAAAAAAAAAAAAAAAAAAAAAAAAAAAAAAAAAAAAAAAAAAAAAAAAAAAAAAAAAAAAAAAAAAAAAAAAAAAAAAAAAAAAAAAAAAAAAAAAAAAAAAAAAAAAAAAAAAAAAAAAAAAAAAAAAAAAAAAAAAAAAAAAAAAAAAAAAAAAAAAAAAAAAAAAAAAAAAAAAAAAAAAAAAAAAAAAAAAAAAAAAAAAAAAAAAAAAAAAAAAAAAAAAAAAAAAAAAAAAAAAAAAAAAAAAAAAAAAAAAAAAAAAAAAAAAAAAAAAAAAAAAAAAAAAAAAAAAAAAAAAAAAAAAAAAAAAAAAAAAAAAAAAAAAAAAAAAAAAAAAAAAAAAAAAAAAAAAAAAAAAAAAAAAAAAAAAAAAAAAAAAAAAAAAAAAAAAAAAAAAAAAAAAAAAAAAAAAAAAAAAAAAAAAAAAAAAAAAAAAAAAAAAAAAAAAAAAAAAAAAAAAAAAAAAAAAAAAAAAAAAAAAAAAAAAAAAAAAAAAAAAAAAAAAAAAAAAAAAAAAAAAAAAAAAAAAAAAAAAAAAAAAAAAAAAAAAAAAAAAAAAAAAAAAAAAAAAAAAAAAAAAAAAAAAAAAAAAAAAAAAAAAAAAAAAAAAAAAAAAAAAAAAAAAAAAAAAAAAAAAAAAAAAAAAAAAAAAAAAAAAAAAAAAAAAAAAAAAAAAAAAAAAAAAAAAAAAAAAAAAAAAAAAAAAAAAAAAAAAAAAAAAAAAAAAAAAAAAAAAAAAAAAAAAAAAAAAAAAAAAAAAAAAAAAAAAAAAAAAAAAAAAAAAAAAPZYQG7VDHlL54ZwuexkTp8IQVFV3cMPPT7+P6g+m6/dhkcBi57t5ZPWNsah85QHMG2aldslWSk8IE7DarW1rqJoxZQ=</c2pa:manifest></metadata>

<linearGradient id="SVGID_1_" gradientUnits="userSpaceOnUse" x1="101.2135" y1="363.7011" x2="306.1358" y2="96.5702">
&#x9;<stop offset="0" style="stop-color:#B92B95"></stop>
&#x9;<stop offset="4.840000e-02" style="stop-color:#BD3291"></stop>
&#x9;<stop offset="0.4942" style="stop-color:#DF6B71"></stop>
&#x9;<stop offset="0.8242" style="stop-color:#F48F5D"></stop>
&#x9;<stop offset="1" style="stop-color:#FC9D55"></stop>
</linearGradient>
<path class="st0" d="M109.3,153.5c-1.6,4.9-2.7,9.9-3.4,14.9c-0.4,2.8-2.7,4.8-5.5,4.8c-0.3,0-0.5,0-0.7,0c-3-0.4-5.2-3.2-4.8-6.3  c0.8-5.7,2-11.4,3.8-16.9c0.9-2.9,4-4.6,6.9-3.7c2.9,0.9,4.6,4,3.7,6.9C109.4,153.4,109.4,153.4,109.3,153.5L109.3,153.5z   M367.2,131.7c0.6,1.5,0.5,3.2-0.2,4.7c-0.9,1.6-19.3,36-49.8,40.8c2.7,4.6,4.3,9.6,4.8,14.9l0.5,5.4c1.2,12.4,6.3,24.1,14.5,33.4  c12.7,14,19.3,32.3,18.5,51.2c-0.2,6.2-1.3,12.4-3.2,18.3c-0.7,2.3-2.9,3.9-5.3,3.9c-0.6,0-1.1-0.1-1.7-0.3c-2.9-0.9-4.6-4-3.6-7  c1.6-5,2.5-10.2,2.7-15.4c0.7-15.9-5-31.5-15.7-43.3c-9.8-11.1-15.9-25-17.3-39.8l-0.5-5.4c-0.6-6.3-3.6-12.2-8.3-16.5  c0,0-0.5-0.5-0.6-0.5c-4.7-4-10.6-6.2-16.8-6.1c-4.4,0-8.6,1.2-12.4,3.5c-1.7,1-3.3,2.2-4.7,3.6c-4.7,4.5-7.6,10.6-8.3,17.1  c-1,9.5-3.9,18.7-8.5,27h22.7c3.1,0,5.6,2.5,5.6,5.6c0,0,0,0,0,0c0.1,32.8-13,64.3-36.2,87.5c-1.8,1.8-3.6,3.4-5.4,5.1  c22.1,25.2,60.4,27.7,85.6,5.6c1.7-1.5,3.4-3.1,4.9-4.9c2.1-2.3,5.6-2.4,7.9-0.3c2.3,2.1,2.4,5.6,0.3,7.9  c-12.6,13.9-30.2,22.4-49,23.4c-1.4,0.1-2.7,0.1-4.1,0.1c-20.8,0-40.7-9-54.3-24.8c-21.2,15.7-47,24.2-73.4,24.1h-0.6  c-68.3-0.1-123.6-55.4-123.7-123.7c0-3.1,2.5-5.6,5.6-5.6h64.8c-3.1-7.6-5.3-15.5-6.5-23.6c-0.4-3,1.7-5.9,4.7-6.3  c3-0.4,5.8,1.6,6.3,4.6c1.4,8.8,4,17.3,7.7,25.3h124.1c5.8-8.3,9.4-18,10.5-28.1c0.9-9.1,5-17.7,11.6-24c1.2-1.1,2.4-2.1,3.7-3.1  c-2.8-19-11.6-34.4-24.5-42.5c-13.5-8.6-31.7-9.3-52.6-2.1c-0.1,0-0.3,0.1-0.4,0.1c-0.4,0.1-0.9,0.2-1.3,0.2c-0.1,0-0.2,0-0.2,0  s-0.2,0-0.4,0s-0.3,0-0.4,0c-0.1,0-0.1,0-0.1,0c-0.1,0-0.2,0-0.3,0c-0.2,0-0.3-0.1-0.4-0.1c0,0-0.1,0-0.1,0h-0.1  c-9.2-3.4-19-5.1-28.9-4.9c-11.9,0.2-23.3,5.2-31.6,13.8c-2.1,2.2-5.7,2.3-7.9,0.1c-2.2-2.1-2.3-5.7-0.1-7.9  c6.9-7.1,15.6-12.3,25.1-14.9c-17.3-17-15.1-43-15-44.3c0.3-2.9,2.7-5.1,5.6-5.1c21.9,0.2,38.2,6.4,48.6,18.5  c3.5,4.2,6.3,8.9,8.2,14c6.1-15.4,15.9-29,28.4-39.7c2.4-2,5.9-1.7,7.9,0.7s1.7,5.9-0.7,7.9c-14.1,11.8-23.7,27.3-29.9,48.3  c20.3-5,38.3-3,52.6,6.1c14.7,9.3,25,26.1,28.9,46.6c1.7-0.6,3.4-1,5.1-1.3c-0.2-23.9,3.2-41.7,10.4-54.2c1.5-2.7,5-3.6,7.6-2  c2.7,1.5,3.6,5,2,7.6c-3.8,7-6.2,14.7-7.3,22.6c1.3-1.3,2.7-2.4,4.1-3.5c14.9-10.7,37.5-11.2,67.4-1.4  C365.3,129,366.6,130.2,367.2,131.7L367.2,131.7z M179.6,108.7c-0.3-9-3.5-17.6-9.1-24.6c-7.4-8.5-19-13.3-34.7-14.4  c0.4,8.9,3.2,26.9,19.6,35.7C163.6,105.4,171.7,106.5,179.6,108.7z M260.4,268.6c-4.9,7.7-10.6,14.9-17.1,21.3  c-23.2,23.3-54.7,36.3-87.5,36.2h-0.6c-42.4-0.1-81.8-21.9-104.5-57.6c17.1,42.7,58.5,70.8,104.5,70.8h0.6  c25.6,0.1,50.5-8.7,70.5-24.8c0.2-0.2,0.3-0.3,0.5-0.4c0.1-0.1,0.2-0.1,0.3-0.2c2.9-2.4,5.6-4.9,8.3-7.5  C246.2,295.6,254.7,282.8,260.4,268.6L260.4,268.6z M46.7,232.4c13.6,48.7,57.9,82.5,108.5,82.6h0.6c50.7,0,95.1-33.8,108.5-82.6  L46.7,232.4z M353.6,137c-22.6-6.4-40-5.8-50.6,1.9c-6.5,5-10.7,12.3-11.8,20.4c6,1,11.7,3.4,16.5,7.1  C329.9,168,346.6,147.5,353.6,137L353.6,137z M155.5,272.5c-3.1,0-5.6,2.5-5.6,5.6v7.8c0,3.1,2.5,5.6,5.6,5.6c3.1,0,5.6-2.5,5.6-5.6  v-7.8C161.1,275,158.6,272.5,155.5,272.5z M131,265.6c-2.6-1.6-6-0.9-7.7,1.7c0,0,0,0,0,0l-4.2,6.6c-1.6,2.6-0.9,6,1.7,7.7  c2.6,1.6,6,0.9,7.7-1.7l4.2-6.6C134.4,270.7,133.6,267.3,131,265.6C131,265.6,131,265.6,131,265.6L131,265.6z M106.6,244.2l-7,3.4  c-2.8,1.2-4.2,4.4-3,7.3c1.2,2.8,4.4,4.2,7.3,3c0.2-0.1,0.4-0.2,0.5-0.2l7.1-3.4c2.8-1.3,4-4.7,2.6-7.4  C112.7,244,109.3,242.9,106.6,244.2L106.6,244.2L106.6,244.2z M187.7,267.4c-1.7-2.6-5.1-3.4-7.7-1.7c-2.6,1.6-3.3,5-1.7,7.6  l4.2,6.6c1.7,2.6,5.1,3.4,7.7,1.7c2.6-1.6,3.3-5,1.7-7.6L187.7,267.4z M211.5,247.6l-7.1-3.4c-2.8-1.3-6.1-0.2-7.4,2.6  c-1.3,2.8-0.2,6.1,2.6,7.4l7.1,3.4c2.8,1.3,6.1,0,7.4-2.8C215.3,252.1,214.2,248.9,211.5,247.6z"></path>
</svg>